<svg xmlns="http://www.w3.org/2000/svg" viewBox="0 0 23 43"><defs><style>.cls-1{fill:#f15922;}</style></defs><title>Fichier 2</title><g id="Calque_2" data-name="Calque 2"><g id="Calque_1-2" data-name="Calque 1"><g id="Calque_2-2" data-name="Calque 2"><g id="Calque_1-2-2" data-name="Calque 1-2"><path class="cls-1" d="M.76,38.63v2.46A1.19,1.19,0,0,0,2,42.27h19a1.19,1.19,0,0,0,1.2-1.18h0V38.63Zm13.54,3H8.71a.61.61,0,1,1,0-1.23H14.3a.61.61,0,1,1,0,1.23Z"/><path class="cls-1" d="M19.62,0H3.38A3.37,3.37,0,0,0,0,3.34V39.66A3.37,3.37,0,0,0,3.38,43H19.62A3.37,3.37,0,0,0,23,39.66V3.34A3.37,3.37,0,0,0,19.62,0ZM8.45,2.43h6.1a.36.36,0,1,1,0,.73H8.45a.36.36,0,1,1,0-.73ZM14.3,41.65H8.71a.61.61,0,1,1,0-1.23H14.3a.61.61,0,1,1,0,1.23Zm7.41-3.14H1.29v-33H21.71Z"/></g></g></g></g></svg>