<svg xmlns="http://www.w3.org/2000/svg" viewBox="0 0 23 43.54" width="23" height="44"><defs><style>.cls-1{fill:#fff;}</style></defs><title>icon_apps</title><g id="Calque_2" data-name="Calque 2"><g id="Calque_1-2" data-name="Calque 1"><g id="Calque_2-2" data-name="Calque 2"><g id="Calque_1-2-2" data-name="Calque 1-2"><rect class="cls-1" x="3.51" y="10.21" width="3.44" height="3.44" rx="0.59" ry="0.59"/><rect class="cls-1" x="7.68" y="10.21" width="3.44" height="3.44" rx="0.59" ry="0.59"/><rect class="cls-1" x="11.85" y="10.21" width="3.44" height="3.44" rx="0.59" ry="0.59"/><rect class="cls-1" x="16.05" y="10.21" width="3.44" height="3.44" rx="0.59" ry="0.59"/><rect class="cls-1" x="3.51" y="15.25" width="3.44" height="3.44" rx="0.59" ry="0.59"/><rect class="cls-1" x="7.68" y="15.25" width="3.44" height="3.44" rx="0.59" ry="0.59"/><rect class="cls-1" x="11.85" y="15.25" width="3.44" height="3.44" rx="0.59" ry="0.59"/><rect class="cls-1" x="16.05" y="15.25" width="3.44" height="3.44" rx="0.59" ry="0.59"/><rect class="cls-1" x="3.51" y="20.29" width="3.44" height="3.44" rx="0.59" ry="0.59"/><rect class="cls-1" x="7.68" y="20.29" width="3.44" height="3.44" rx="0.59" ry="0.59"/><rect class="cls-1" x="11.85" y="20.29" width="3.44" height="3.44" rx="0.59" ry="0.59"/><rect class="cls-1" x="16.05" y="20.29" width="3.44" height="3.44" rx="0.59" ry="0.59"/><rect class="cls-1" x="3.51" y="25.34" width="3.44" height="3.44" rx="0.59" ry="0.59"/><rect class="cls-1" x="7.68" y="25.34" width="3.44" height="3.44" rx="0.59" ry="0.59"/><path class="cls-1" d="M19.62,0H3.38A3.39,3.39,0,0,0,0,3.38V40.16a3.39,3.39,0,0,0,3.38,3.38H19.62A3.39,3.39,0,0,0,23,40.16V3.38A3.39,3.39,0,0,0,19.62,0ZM8.45,2.46h6.1a.37.37,0,0,1,0,.74H8.45a.37.37,0,1,1,0-.74ZM14.3,42.17H8.71a.62.62,0,1,1,0-1.24H14.3a.62.62,0,1,1,0,1.24ZM21.71,39H1.29V5.53H21.71Z"/></g></g></g></g></svg>
