<svg xmlns="http://www.w3.org/2000/svg" viewBox="0 0 187 354" width="39" height="74"><defs><style>.cls-1{fill:#f15922}</style></defs><title>icon_network</title><g id="Calque_2" data-name="Calque 2"><g id="Calque_1-2" data-name="Calque 1"><path class="cls-1" d="M159.5 0h-132A27.58 27.58 0 0 0 0 27.5v299A27.58 27.58 0 0 0 27.5 354h132a27.58 27.58 0 0 0 27.5-27.5v-299A27.58 27.58 0 0 0 159.5 0zM68.74 20h49.57a3 3 0 0 1 0 6H68.74a3 3 0 0 1 0-6zm47.52 322.88H70.79a5.05 5.05 0 1 1 0-10.1h45.47a5.05 5.05 0 0 1 0 10.1zM176.5 317h-166V45h166z"/><path class="cls-1" d="M77.17 169.81c9.1-4.77 18.15-9.55 27.24-14.24 1.2-.62 1-1.51 1-2.47.23-6.62 3.14-11.64 9.19-14.46s11.69-2 16.83 2.05a15.91 15.91 0 0 1-19.18 25.36 2.64 2.64 0 0 0-3.3-.14c-8.63 4.61-17.27 9.19-26 13.61-1.67.85-1.62 2.12-1.55 3.39 0 .58.89 1.3 1.54 1.62 8.34 4.16 16.71 8.25 25 12.42a2.09 2.09 0 0 0 2.74-.34 15.92 15.92 0 1 1 13.41 27.52c-8.47 1.67-17.2-4.31-18.39-12.87a5 5 0 0 0-3.25-4.44c-8.53-4.05-17-8.3-25.43-12.54a2.88 2.88 0 0 0-3.19.14c-5.88 3.45-11.84 3.37-17.44-.5a14.93 14.93 0 0 1-6.39-15.8c1.22-6.78 5.44-11.12 12.16-12.72a15.3 15.3 0 0 1 13.36 3c.53.45 1.07.93 1.65 1.41z"/></g></g></svg>