<svg xmlns="http://www.w3.org/2000/svg" viewBox="0 0 23 43.54" width="23" height="44"><defs><style>.cls-1{fill:#fff;}</style></defs><title>icon_network</title><g id="Calque_2" data-name="Calque 2"><g id="Calque_1-2" data-name="Calque 1"><g id="Calque_2-2" data-name="Calque 2"><g id="Calque_1-2-2" data-name="Calque 1-2"><path class="cls-1" d="M19.62,0H3.38A3.39,3.39,0,0,0,0,3.38V40.16a3.39,3.39,0,0,0,3.38,3.38H19.62A3.39,3.39,0,0,0,23,40.16V3.38A3.39,3.39,0,0,0,19.62,0ZM8.45,2.46h6.1a.37.37,0,0,1,0,.74H8.45a.37.37,0,1,1,0-.74ZM14.3,42.17H8.71a.62.62,0,1,1,0-1.24H14.3a.62.62,0,1,1,0,1.24ZM21.71,39H1.29V5.53H21.71Z"/><path class="cls-1" d="M9.49,20.89l3.35-1.75c.15-.08.12-.19.12-.3a1.89,1.89,0,0,1,1.13-1.78,1.86,1.86,0,0,1,2.07.25,2,2,0,0,1-2.36,3.12.32.32,0,0,0-.41,0c-1.06.57-2.12,1.13-3.2,1.67-.21.1-.2.26-.19.42s.11.16.19.2l3.07,1.53a.26.26,0,0,0,.34,0,2,2,0,1,1,1.65,3.38A1.93,1.93,0,0,1,13,26a.61.61,0,0,0-.4-.55c-1-.5-2.09-1-3.13-1.54a.35.35,0,0,0-.39,0,1.87,1.87,0,0,1-2.15-.06,2,2,0,0,1,.71-3.51,1.88,1.88,0,0,1,1.64.37Z"/></g></g></g></g></svg>
