<svg xmlns="http://www.w3.org/2000/svg" viewBox="0 0 65.11 57.02"><defs><style>.cls-1{fill:red}</style></defs><title>icon-heart--hover</title><g id="Calque_2" data-name="Calque 2"><path class="cls-1" d="M62.78 9.72c-5.86-10.9-19.85-13-29.37-4.51l-.86.79a20.81 20.81 0 0 0-12-5.8A18.27 18.27 0 0 0 .58 14c-.2.83-.38 1.66-.58 2.49v4.05a5.3 5.3 0 0 1 .25.82 19.14 19.14 0 0 0 5.42 11.09q10.89 11.1 21.81 22.18c3.16 3.2 7 3.2 10.17 0q10.86-11 21.7-22.08a19 19 0 0 0 5-8.66c.29-1.11.52-2.23.78-3.34v-3.77c-.78-2.36-1.19-4.91-2.35-7.06z" id="Calque_1-2" data-name="Calque 1"/></g></svg>