<svg xmlns="http://www.w3.org/2000/svg" viewBox="0 0 262 262"><defs><style>.cls-1{fill:#fda403;}</style></defs><title>Fichier 1</title><g id="Calque_2" data-name="Calque 2"><g id="Calque_1-2" data-name="Calque 1"><path class="cls-1" d="M0,43.36V61.79q3.42-5.94,7.26-11.53A165.56,165.56,0,0,1,62.63,0H44.24A153.94,153.94,0,0,0,0,43.36Z"/><path class="cls-1" d="M28.73,0H0V28.33A163.42,163.42,0,0,1,28.73,0Z"/><path class="cls-1" d="M22.76,65.76A166.21,166.21,0,0,1,82.14,13.29,195.48,195.48,0,0,1,113.5,0H82.69c-4,1.77-8.06,3.72-12.13,5.9C38.25,23.21,14.67,48.45,0,81.3v31.12A179.18,179.18,0,0,1,22.76,65.76Z"/><path class="cls-1" d="M156.87,0A195.08,195.08,0,0,0,86.06,21.4C37.21,47.56,8.31,91.86,0,153.16V262H262V0ZM236,62.88,124.75,205.68h84.77L202,242.09H62.45l5.4-28.59L178.37,70.56H101.14l7.54-36.41H241.81Z"/></g></g></svg>