<svg xmlns="http://www.w3.org/2000/svg" viewBox="0 0 187 354" width="39" height="74"><defs><style>.cls-1{fill:#fff}</style></defs><title>Fichier 1</title><g id="Calque_2" data-name="Calque 2"><g id="Calque_1-2" data-name="Calque 1"><path d="M6.2 318v20.25A9.75 9.75 0 0 0 16 348h154.22a9.75 9.75 0 0 0 9.75-9.75V318zm110.06 24.88H70.79a5.05 5.05 0 1 1 0-10.1h45.47a5.05 5.05 0 0 1 0 10.1z"/><path class="cls-1" d="M159.5 0h-132A27.58 27.58 0 0 0 0 27.5v299A27.58 27.58 0 0 0 27.5 354h132a27.58 27.58 0 0 0 27.5-27.5v-299A27.58 27.58 0 0 0 159.5 0zM68.74 20h49.57a3 3 0 0 1 0 6H68.74a3 3 0 0 1 0-6zm47.52 322.88H70.79a5.05 5.05 0 1 1 0-10.1h45.47a5.05 5.05 0 0 1 0 10.1zM176.5 317h-166V45h166z"/></g></g></svg>