<svg xmlns="http://www.w3.org/2000/svg" viewBox="0 0 18.81 30.53" width="25" height="31"><defs><style>.cls-1{fill:#88292f}</style></defs><title>picto_female--apps</title><g id="Calque_2" data-name="Calque 2"><path class="cls-1" d="M10.88 23h4.41a.89.89 0 0 1 1 1.06v1a.72.72 0 0 1-.82.77h-4.59v3.72c0 .64-.25.9-.88.91H8.78c-.62 0-.87-.27-.87-.91v-3.72H3.3c-.55 0-.81-.26-.82-.82s0-.84 0-1.26a.71.71 0 0 1 .8-.75h4.59a2.67 2.67 0 0 0 0-.31v-3.74c0-.25-.08-.33-.32-.4A14.56 14.56 0 0 1 5 17.69 8.84 8.84 0 0 1 1.94 15a10 10 0 0 1-1.72-3.7A9.11 9.11 0 0 1 .1 7.9a9.3 9.3 0 0 1 1.15-3.21 8.3 8.3 0 0 1 2-2.42A14.61 14.61 0 0 1 5.53.87a8.86 8.86 0 0 1 5.94-.64 7.26 7.26 0 0 1 3.28 1.47 11.71 11.71 0 0 1 1.9 1.72 12.67 12.67 0 0 1 1.42 2.45 8.15 8.15 0 0 1 .64 4.73 9.72 9.72 0 0 1-.91 2.93 9.62 9.62 0 0 1-2.63 3.24 7.43 7.43 0 0 1-1.7 1c-.76.33-1.58.54-2.36.81-.09 0-.22.16-.22.24-.01 1.4-.01 2.78-.01 4.18zM9.42 2.9a6.51 6.51 0 1 0 0 13 6.51 6.51 0 1 0 0-13z" id="Calque_1-2" data-name="Calque 1"/></g></svg>