<svg xmlns="http://www.w3.org/2000/svg"><symbol id="arrow_left" viewBox="0 0 20.01 19.93"><title>arrow_left</title><g id="Calque_2" data-name="Calque 2"><path class="cls-1" d="M4.69 8.72H19.5c.4 0 .53.1.5.5s0 1 0 1.46 0 .52-.5.52H4.68l7 7-1.74 1.73L0 10 10 0l1.56 1.66L4.63 8.6z" id="Calque_1-2" data-name="Calque 1"/></g></symbol><symbol id="facebook" viewBox="0 0 40 40"><title>facebook</title><path fill="#fff" d="M0 0h40v40H0z"/><path d="M30 8.8H10A1.24 1.24 0 0 0 8.8 10v20a1.24 1.24 0 0 0 1.2 1.2h10.76v-8.67h-2.91v-3.39h2.92v-2.49c0-2.89 1.77-4.47 4.35-4.47a23.93 23.93 0 0 1 2.61.13v3h-1.8c-1.4 0-1.68.67-1.68 1.65v2.16h3.35l-.44 3.38h-2.9v8.7H30a1.24 1.24 0 0 0 1.2-1.2V10A1.24 1.24 0 0 0 30 8.8z"/></symbol><symbol id="twitter" viewBox="0 0 40 40"><title>twitter</title><path fill="#fff" d="M0 0h40v40H0z"/><path d="M31.2 13.05a9.18 9.18 0 0 1-2.64.72 4.61 4.61 0 0 0 2-2.54 9.2 9.2 0 0 1-2.92 1.12 4.6 4.6 0 0 0-7.83 4.19 13 13 0 0 1-9.47-4.8 4.6 4.6 0 0 0 1.42 6.14 4.58 4.58 0 0 1-2.06-.58v.06a4.6 4.6 0 0 0 3.69 4.51 4.61 4.61 0 0 1-2.08.08 4.6 4.6 0 0 0 4.29 3.19 9.22 9.22 0 0 1-5.71 2A9.35 9.35 0 0 1 8.8 27a13.07 13.07 0 0 0 20.12-11v-.59a9.33 9.33 0 0 0 2.28-2.36z"/></symbol><symbol id="pinterest" viewBox="0 0 40 40"><title>pinterest</title><path fill="#fff" d="M0 0h40v40H0z"/><path d="M28.67 16.17c0 5-2.8 8.82-6.94 8.82a3.69 3.69 0 0 1-3.14-1.6s-.75 3-.9 3.54a13.76 13.76 0 0 1-2.32 4.21.17.17 0 0 1-.31-.07 14.42 14.42 0 0 1 0-4.89l1.65-7a5 5 0 0 1-.41-2c0-1.91 1.11-3.33 2.48-3.33a1.72 1.72 0 0 1 1.74 1.93c0 1.18-.75 2.94-1.14 4.57a2 2 0 0 0 2 2.48c2.44 0 4.08-3.13 4.08-6.84 0-2.82-1.9-4.93-5.35-4.93a6.09 6.09 0 0 0-6.33 6.16 3.71 3.71 0 0 0 .85 2.52.63.63 0 0 1 .19.72c-.06.24-.2.81-.26 1a.44.44 0 0 1-.64.32c-1.8-.73-2.63-2.7-2.63-4.92 0-3.66 3.08-8 9.2-8 4.95-.06 8.18 3.49 8.18 7.31z"/></symbol><symbol id="instagram" viewBox="0 0 40 40"><title>instagram</title><path fill="#fff" d="M0 0h40v40H0z"/><path d="M28.62 18.28h-1.95a6.89 6.89 0 1 1-13.33 0h-2v9.48a.86.86 0 0 0 .86.86h15.55a.86.86 0 0 0 .86-.86zm0-6a.86.86 0 0 0-.86-.86h-2.59a.86.86 0 0 0-.86.86v2.58a.86.86 0 0 0 .86.86h2.58a.86.86 0 0 0 .86-.86zM20 15.69A4.31 4.31 0 1 0 24.31 20 4.31 4.31 0 0 0 20 15.69m8.62 15.51H11.38a2.58 2.58 0 0 1-2.58-2.59V11.38a2.58 2.58 0 0 1 2.58-2.58h17.24a2.58 2.58 0 0 1 2.58 2.58v17.23a2.58 2.58 0 0 1-2.58 2.59"/></symbol><symbol id="playlabel" viewBox="0 0 100 130"><title>logo_playlabel</title><path fill="#e73430" d="M50.26 0L0 64.75 50.26 130 100 65.25 50.26 0z"/><ellipse cx="50" cy="65" rx="16.92" ry="16.69" fill="#fff"/><ellipse cx="50" cy="65" rx="1.79" ry="1.77" fill="#e5352e"/></symbol><symbol id="logo__sm" viewBox="0 0 90 90"><svg xmlns="http://www.w3.org/2000/svg" viewBox="0 0 90 90"><defs><style>.cls-1{fill:#fff}</style></defs><title>logo</title><g id="Calque_2" data-name="Calque 2"><g id="Calque_1-2" data-name="Calque 1"><circle cx="45" cy="45" r="45"/><circle class="cls-1" cx="45" cy="45" r="18.5"/></g></g></svg></symbol></svg>