<svg xmlns="http://www.w3.org/2000/svg" viewBox="0 0 117.94 99.17"><defs><style>.cls-1{fill:#fda403}</style></defs><title>close-quote</title><g id="Calque_2" data-name="Calque 2"><path class="cls-1" d="M11.1 99c-.91-1-1.39-1.46-1.79-2s-.74-1.1-1.77-2.67A12.55 12.55 0 0 0 10 93c11-8.84 21.3-18.28 27.15-31.47C41.84 51 41.8 40.69 35.26 31.37c-4.38 2.54-8.18 6-12.57 7.05C11.46 41.25 1.61 34.14.16 23.12-1.31 11.91 7.25 1.15 18.26.36 35.13-.84 46.9 9.26 50 27.42a52.73 52.73 0 0 1-3.88 30.25C38.69 74.86 26.33 87.81 11.1 99zm66.65.17c-.66-1-1-1.54-1.4-2.09s-.86-1.37.43-.59c6.38-7.24 13-14.3 19.09-21.77 6.52-8 11.48-16.65 11.37-27.53a26.68 26.68 0 0 0-5.62-16.42 26.32 26.32 0 0 0-2.56 2.29c-8 9.24-21.74 6.54-27.61.1-6.72-7.37-5.75-20.22 2.1-27.56 9.06-8.47 26-7.23 34.57 3 11.56 13.82 11.88 29.65 6.21 45.7-6.68 18.85-19.96 32.7-36.58 44.87z" id="Calque_1-2" data-name="Calque 1"/></g></svg>