<svg xmlns="http://www.w3.org/2000/svg" viewBox="0 0 197.08 226.77"><defs><style>.cls-1{fill:#fff}</style></defs><title>graph_icon_1</title><g id="Calque_2" data-name="Calque 2"><path class="cls-1" d="M48 226.77H4.35c-2.4 0-4.35-2.22-4.35-5V59.53c0-2.74 1.95-5 4.35-5H48c2.4 0 4.35 2.22 4.35 5v162.28c.01 2.74-1.94 4.96-4.35 4.96zm-39.31-9.92h35V64.49h-35zm111.18 9.92H76.21c-2.4 0-4.35-2.22-4.35-5V97.23c0-2.74 1.95-5 4.35-5h43.67c2.4 0 4.35 2.22 4.35 5v124.58c-.01 2.74-1.96 4.96-4.36 4.96zm-39.32-9.92h35V102.19h-35zm112.18 9.92h-43.66c-2.4 0-4.35-2.22-4.35-5V5c0-2.74 1.95-5 4.35-5h43.66c2.4 0 4.35 2.22 4.35 5v216.81c0 2.74-1.95 4.96-4.35 4.96zm-39.32-9.92h35V9.92h-35z" id="Calque_1-2" data-name="Calque 1"/></g></svg>