<svg xmlns="http://www.w3.org/2000/svg" viewBox="0 0 65.11 57.02"><defs><style>.cls-1{fill:#fff;}</style></defs><title>icon-heart</title><g id="Calque_2" data-name="Calque 2"><g id="Calque_1-2" data-name="Calque 1"><path class="cls-1" d="M65.11,20.55c-.26,1.11-.49,2.24-.78,3.34a19,19,0,0,1-5,8.66q-10.85,11-21.7,22.08c-3.15,3.19-7,3.19-10.17,0Q16.56,43.55,5.67,32.45A19.14,19.14,0,0,1,.25,21.37,5.3,5.3,0,0,0,0,20.55V16.49c.19-.83.38-1.66.58-2.49A18.27,18.27,0,0,1,20.53.19a20.82,20.82,0,0,1,12,5.8l.86-.78c9.52-8.47,23.51-6.39,29.37,4.51,1.16,2.15,1.57,4.7,2.33,7.06ZM32.59,51c.42-.4.82-.74,1.18-1.11l5.46-5.58C44.49,39,49.78,33.66,55,28.26a12.94,12.94,0,0,0,3.51-13C56,5.78,44.34,2.92,37.17,9.94c-1.55,1.51-3.14,3-4.63,4.38-1.5-1.43-3.11-2.94-4.71-4.48C23,5.15,15.35,4.74,10.63,8.91a13,13,0,0,0-.84,19C17,35.42,24.34,42.81,31.64,50.24,31.9,50.5,32.21,50.73,32.59,51Z"/></g></g></svg>