<svg xmlns="http://www.w3.org/2000/svg" viewBox="0 0 65.11 57.02"><defs><style>.cls-1{fill:red;}</style></defs><title>icon-heart--hover</title><g id="Calque_2" data-name="Calque 2"><g id="Calque_1-2" data-name="Calque 1"><path class="cls-1" d="M62.78,9.72c-5.86-10.9-19.85-13-29.37-4.51L32.55,6a20.81,20.81,0,0,0-12-5.8A18.27,18.27,0,0,0,.58,14c-.2.83-.38,1.66-.58,2.49v4.05a5.3,5.3,0,0,1,.25.82A19.14,19.14,0,0,0,5.67,32.45q10.89,11.1,21.81,22.18c3.16,3.2,7,3.2,10.17,0q10.86-11,21.7-22.08a19,19,0,0,0,5-8.66c.29-1.11.52-2.23.78-3.34V16.78C64.35,14.42,63.94,11.87,62.78,9.72Z"/></g></g></svg>