<svg xmlns="http://www.w3.org/2000/svg" viewBox="0 0 137.35 180.25"><defs><style>.cls-1{fill:#f87444}</style></defs><title>login_icon</title><g id="Calque_2" data-name="Calque 2"><g id="Calque_1-2" data-name="Calque 1"><path class="cls-1" d="M120.18 60.06a16.56 16.56 0 0 1 7.58 1.82 17.16 17.16 0 0 1 9.5 13.72 14.94 14.94 0 0 1 .07 1.86v85.36A17.29 17.29 0 0 1 120 180.25H17.39A17.27 17.27 0 0 1 .24 165.76a17.73 17.73 0 0 1-.21-3V77.6A17.47 17.47 0 0 1 11.73 61a18.37 18.37 0 0 1 2.67-.67c.88-.16 1.79-.2 2.78-.3v-.72c0-3.69 0-7.38.14-11.07A45.07 45.07 0 0 1 20 34.67 51.39 51.39 0 0 1 43.63 6.55 48.34 48.34 0 0 1 60.83.6 50.33 50.33 0 0 1 98 9.26a50.83 50.83 0 0 1 20.25 28.41 49.85 49.85 0 0 1 1.91 13.77v7.85zm-103 17.22V163h102.95V77.28zM103 60v-.73c0-2.27.06-4.55 0-6.82a57.48 57.48 0 0 0-.48-6.6 32.57 32.57 0 0 0-7.62-16.57 34.51 34.51 0 0 0-37.56-10.21 33.72 33.72 0 0 0-19.16 16.58 31.78 31.78 0 0 0-3.74 13.77c-.13 3.41-.07 6.82-.1 10.23a2.18 2.18 0 0 0 .06.37z"/><path class="cls-1" d="M68.67 137.31a17.15 17.15 0 1 1 17.16-17.11 17.12 17.12 0 0 1-17.16 17.11z"/></g></g></svg>