<svg xmlns="http://www.w3.org/2000/svg" viewBox="0 0 113.93 230.97" width="38" height="38"><defs><style>.cls-1{fill:#474747}</style></defs><title>mic</title><g id="Calque_2" data-name="Calque 2"><g id="Calque_1-2" data-name="Calque 1"><path class="cls-1" d="M60.42 0c2.62.66 5.32 1.1 7.86 2A37.12 37.12 0 0 1 92.5 35c.05 1 .09 1.94.09 2.9v93.4a38.19 38.19 0 0 1-8.66 24.94c-16.57 20.21-47.54 16.24-58.81-7.5a39.77 39.77 0 0 1-3.86-17.25c0-31.26-.16-62.53.06-93.79.11-15.4 6.91-27.25 20.89-34.29C45.66 1.72 49.69 1.12 53.44 0z"/><path class="cls-1" d="M113.93 138.42c-1.25 5.25-2 10.72-3.87 15.73C104.2 169.46 93.22 180 78 185.89c-4.11 1.6-8.58 2.33-12.9 3.36-1.1.26-1.66.55-1.66 1.83.05 8.66 0 17.32 0 26a8.65 8.65 0 0 0 .12.94h31.76v13H18.51v-12.9h31.75v-28.18c-4.64-1.26-9.21-2.2-13.57-3.73A54.88 54.88 0 0 1 .08 135.57C-.08 127 .08 118.51 0 110c0-1.67.6-2.12 2.15-2.07 2.84.08 5.69.11 8.53 0 1.8-.07 2.35.61 2.33 2.36q-.1 11.73 0 23.46c.18 19.44 11.91 35.24 30.43 41.11a44.81 44.81 0 0 0 49.1-15.51 41.41 41.41 0 0 0 8.37-25.9v-23.07c0-1.85.56-2.55 2.44-2.45 3.54.18 7.09.19 10.64.27z"/></g></g></svg>