<svg xmlns="http://www.w3.org/2000/svg" viewBox="0 0 117.71 99.46"><defs><style>.cls-1{fill:#fda403}</style></defs><title>open-quote</title><g id="Calque_2" data-name="Calque 2"><path class="cls-1" d="M39.73.85l3.1 3.72-1.6-1.32c-6.65 7.44-13.57 14.66-19.87 22.38-7.32 9-12.55 19-10.49 31.12.72 4.25 2.9 8.25 4.72 13.15 5.24-5.76 10-9.59 17.1-9.14 10.81.68 17.79 7.4 18 18C51 88.9 43.07 98.23 33.36 99.24c-15.88 1.66-27.52-6.42-31.58-21.9C-3 59.21 2.17 43.12 12.21 28.2 19.44 17.45 28.89 8.81 39.73.85zm66.4-.85l3.61 4.63-1.52-1.19c-6.68 7.41-13.67 14.56-20 22.29-7.31 9-12.58 19-10.4 31.14.74 4.11 2.78 8 4.53 12.81 1.75-1.61 2.67-2.43 3.57-3.28 6.61-6.25 15.32-7.5 22.87-3.26C115.68 67 119 75 117.24 83.29c-1.86 8.69-9.15 15.34-17.54 16-17 1.32-29.13-8.69-31.91-25.94-3.19-19.8 3.77-36.46 16.06-51.12C90.43 14.39 98.35 7.68 106.13 0z" id="Calque_1-2" data-name="Calque 1"/></g></svg>