<svg xmlns="http://www.w3.org/2000/svg" viewBox="0 0 24.57 30.46" width="25" height="31"><defs><style>.cls-1{fill:#88292f}</style></defs><title>picto_male--apps</title><g id="Calque_2" data-name="Calque 2"><path class="cls-1" d="M18 4a8.33 8.33 0 0 0-.85 0L14 4.58c-1 .17-1.1.08-.87-.94a8.49 8.49 0 0 1 .47-1.57 1.27 1.27 0 0 1 1-.77c1.12-.17 2.23-.35 3.34-.53l2.39-.43c.58-.1 1.15-.24 1.74-.34.82-.11 1.11.14 1.21.95.07.56.11 1.13.21 1.68.22 1.2.47 2.4.7 3.6.12.65.21 1.3.35 1.95A1.47 1.47 0 0 1 24 9.69a11.46 11.46 0 0 1-1.34 1c-.56.37-.84.25-.94-.39-.19-1.12-.37-2.25-.56-3.37a5.37 5.37 0 0 0-.22-.78c-.08-.23-.2-.27-.35-.05l-.92 1.31-1.46 2-1.36 2-.14.22c-.47.7-.46.68.19 1.24a10.12 10.12 0 0 1 3.1 9.85 6 6 0 0 1-1 2.49 24 24 0 0 1-1.49 2.11 11 11 0 0 1-1.73 1.48 10.14 10.14 0 0 1-3.27 1.48 5.2 5.2 0 0 1-1.51.19 19.05 19.05 0 0 1-3-.17 8.55 8.55 0 0 1-2.38-.84A12.12 12.12 0 0 1 3.49 28a9.24 9.24 0 0 1-1.93-2.27A10.21 10.21 0 0 1 .16 22a7.61 7.61 0 0 1 .1-3.56c.18-.6.32-1.22.53-1.81A9.09 9.09 0 0 1 2.35 14a11.22 11.22 0 0 1 2.59-2.3 7.91 7.91 0 0 1 1.71-.84 11.17 11.17 0 0 1 5.73-.39 1.7 1.7 0 0 1 .47.18c.45.23.74 0 1-.34.6-.87 1.19-1.75 1.8-2.62.47-.67 1-1.31 1.43-2 .31-.43.61-.88.89-1.32A1.4 1.4 0 0 0 18 4zm-.84 16.44a7 7 0 1 0-7.13 7 7 7 0 0 0 7.18-7.01z" id="Calque_1-2" data-name="Calque 1"/></g></svg>