<svg xmlns="http://www.w3.org/2000/svg" viewBox="0 0 18.81 30.53"><defs><style>.cls-1{fill:#f15922;}</style></defs><title>picto_female</title><g id="Calque_2" data-name="Calque 2"><g id="Calque_1-2" data-name="Calque 1"><path class="cls-1" d="M10.88,23c1.52,0,3,0,4.41,0a.89.89,0,0,1,1,1.06c0,.35,0,.7,0,1a.72.72,0,0,1-.82.77H10.88c0,.38,0,.72,0,1.07q0,1.33,0,2.65c0,.64-.25.9-.88.91H8.78c-.62,0-.87-.27-.87-.91,0-1.22,0-2.43,0-3.72H3.3c-.55,0-.81-.26-.82-.82s0-.84,0-1.26A.71.71,0,0,1,3.28,23H7.87a2.67,2.67,0,0,0,0-.31c0-1.25,0-2.5,0-3.74,0-.25-.08-.33-.32-.4A14.56,14.56,0,0,1,5,17.69,8.84,8.84,0,0,1,1.94,15,10,10,0,0,1,.22,11.3a9.11,9.11,0,0,1-.12-3.4A9.3,9.3,0,0,1,1.25,4.69a8.3,8.3,0,0,1,2-2.42A14.61,14.61,0,0,1,5.53.87,8.86,8.86,0,0,1,11.47.23,7.26,7.26,0,0,1,14.75,1.7a11.71,11.71,0,0,1,1.9,1.72,12.67,12.67,0,0,1,1.42,2.45,8.15,8.15,0,0,1,.64,4.73,9.72,9.72,0,0,1-.91,2.93,9.62,9.62,0,0,1-2.63,3.24,7.43,7.43,0,0,1-1.7,1c-.76.33-1.58.54-2.36.81-.09,0-.22.16-.22.24C10.88,20.22,10.88,21.6,10.88,23ZM9.42,2.9a6.51,6.51,0,1,0,0,13,6.51,6.51,0,1,0,0-13Z"/></g></g></svg>