<svg xmlns="http://www.w3.org/2000/svg" viewBox="0 0 170.08 226.77" width="60" height="80"><defs><style>.cls-1{fill:#fff;}</style></defs><title>read_icon</title><g id="Calque_2" data-name="Calque 2"><g id="Calque_1-2" data-name="Calque 1"><path class="cls-1" d="M153.74,226.77H16.34A16.39,16.39,0,0,1,0,210.36v-194A16.39,16.39,0,0,1,16.34,0H117.19a22.89,22.89,0,0,1,16.28,6.75l29.72,29.69a23.66,23.66,0,0,1,6.89,16.63v157.3A16.39,16.39,0,0,1,153.74,226.77ZM16.34,9.65a6.75,6.75,0,0,0-6.73,6.76v194a6.75,6.75,0,0,0,6.73,6.76H153.74a6.75,6.75,0,0,0,6.73-6.76V53.07a13.93,13.93,0,0,0-4.05-9.79L126.69,13.59a13.36,13.36,0,0,0-9.5-3.94Z"/><path class="cls-1" d="M164.95,54.41h-33a19.58,19.58,0,0,1-19.51-19.6v-30H122v30a9.93,9.93,0,0,0,9.9,9.95h33Z"/><path class="cls-1" d="M136,85.23H33.15a4.83,4.83,0,0,1,0-9.65H136a4.83,4.83,0,0,1,0,9.65Z"/><path class="cls-1" d="M136,115.15H33.15a4.83,4.83,0,0,1,0-9.65H136a4.83,4.83,0,0,1,0,9.65Z"/><path class="cls-1" d="M136,145.07H33.15a4.83,4.83,0,0,1,0-9.65H136a4.83,4.83,0,0,1,0,9.65Z"/><path class="cls-1" d="M136,175H33.15a4.83,4.83,0,0,1,0-9.65H136a4.83,4.83,0,0,1,0,9.65Z"/></g></g></svg>
