<svg xmlns="http://www.w3.org/2000/svg" viewBox="0 0 170.08 226.77" width="60" height="80"><defs><style>.cls-1{fill:#fff}</style></defs><title>read_icon</title><g id="Calque_2" data-name="Calque 2"><g id="Calque_1-2" data-name="Calque 1"><path class="cls-1" d="M153.74 226.77H16.34A16.39 16.39 0 0 1 0 210.36v-194A16.39 16.39 0 0 1 16.34 0h100.85a22.89 22.89 0 0 1 16.28 6.75l29.72 29.69a23.66 23.66 0 0 1 6.89 16.63v157.3a16.39 16.39 0 0 1-16.34 16.4zM16.34 9.65a6.75 6.75 0 0 0-6.73 6.76v194a6.75 6.75 0 0 0 6.73 6.76h137.4a6.75 6.75 0 0 0 6.73-6.76V53.07a13.93 13.93 0 0 0-4.05-9.79l-29.73-29.69a13.36 13.36 0 0 0-9.5-3.94z"/><path class="cls-1" d="M164.95 54.41h-33a19.58 19.58 0 0 1-19.51-19.6v-30H122v30a9.93 9.93 0 0 0 9.9 9.95h33zM136 85.23H33.15a4.83 4.83 0 0 1 0-9.65H136a4.83 4.83 0 0 1 0 9.65zm0 29.92H33.15a4.83 4.83 0 0 1 0-9.65H136a4.83 4.83 0 0 1 0 9.65zm0 29.92H33.15a4.83 4.83 0 0 1 0-9.65H136a4.83 4.83 0 0 1 0 9.65zm0 29.93H33.15a4.83 4.83 0 0 1 0-9.65H136a4.83 4.83 0 0 1 0 9.65z"/></g></g></svg>