<svg xmlns="http://www.w3.org/2000/svg" viewBox="0 0 1102.14 129.6" width="200" height="23"><defs><style>.cls-1{fill:#fff;stroke:#231f20;stroke-miterlimit:10;}.cls-2{fill:#0568a0;}.cls-3{fill:#f15922;}</style></defs><title>logo_OURVOICE_2</title><g id="Calque_2" data-name="Calque 2"><g id="Calque_1-2" data-name="Calque 1"><path class="cls-1" d="M90.64,56.29,85.76,73.4h20.79l-1.71,20.36H79.77l-9.5,33.63H47.18l9.67-33.63H42.47L32.8,127.39H9.7l9.58-33.63H.55L2.34,73.4H25.1L30,56.29H9.87l1.71-20.71H36L45.47,2.3h23.1l-9.5,33.28H73.44L82.94,2.3H106L96.63,35.58h18.91l-1.8,20.71ZM48.2,73.4H62.58l5-17.11H53.17Z"/><path class="cls-1" d="M166.19,127.39H132.74L153,29.93H125.89L131.8,2.3h88l-6.07,27.64H186.47Z"/><path class="cls-1" d="M255.17,81.87l-9.67,45.52H212.05L238.49,2.3H271.6q21.56,0,33,8.56t11.47,25.75q0,13.35-6.07,23.27T292,75l19.17,44.15,3.42,8.21H278.1L261.42,81.87Zm5.39-25.41h4.36q8.13,0,12.92-4.66t4.79-13q0-5.3-3-8.09t-8.6-2.78h-4.53Z"/><path class="cls-1" d="M447.17,2.3,430.14,82q-5.05,24-19.25,35.55T372.31,129.1a42.15,42.15,0,0,1-20.24-4.71,33,33,0,0,1-13.52-13.18,38,38,0,0,1-4.75-18.91,60.71,60.71,0,0,1,1-11l17-79h33.45L368.63,80.41a50.09,50.09,0,0,0-1.2,9.84q0,10.87,10.35,10.87,8,0,12.62-5.52t7-16.9L413.72,2.3Z"/><path class="cls-1" d="M529.57,89q0,19-12.58,29.56T481.91,129.1a73.15,73.15,0,0,1-17.8-2.1,46.31,46.31,0,0,1-14.46-6.12V90.94a74.92,74.92,0,0,0,16.47,7.61,53.93,53.93,0,0,0,16.81,3.08q6.33,0,9.58-2.65a9.16,9.16,0,0,0,3.25-7.53,9.37,9.37,0,0,0-1-4.32,17.89,17.89,0,0,0-2.91-4q-1.88-2-10.1-8.86-10-8-14.55-16.43a38,38,0,0,1-4.53-18.4,36.66,36.66,0,0,1,21.43-34A52.1,52.1,0,0,1,507,.5q20.45,0,36.79,9.15L532.22,35.07q-14.63-7.53-24.9-7.53-5.48,0-8.43,2.4t-3,7a12.4,12.4,0,0,0,2.87,7.83q2.87,3.64,10.91,9.71,10.09,7.44,15,15.66A36.16,36.16,0,0,1,529.57,89Z"/><path class="cls-1" d="M595.62,127.39H562.16l20.28-97.45H555.32l5.9-27.64h88L643.1,29.93H615.9Z"/><path class="cls-2" d="M641.31,127.39,667.75,2.3h34L675.28,127.39Z"/><path class="cls-2" d="M813.71,127.39H774.78l-24.73-88h-.68q-2.48,24.9-4.88,35.76l-11,52.19H703.68L730.12,2.3H769L793.52,86.4h.77q2.48-20.19,4.88-31.74L810.38,2.3h29.78Z"/><path class="cls-3" d="M889.6,127.39V37.63h-.68q-5.73,35.68-7.36,43.81l-9.67,45.95H842.12L868.56,2.3h44.32V91.11h.68L954.46,2.3h45L972.68,127.39h-30l10-47q4.28-19.51,9.24-37.3l1.28-5.48h-.68l-41.24,89.75Z"/><path class="cls-3" d="M1075.7,127.39h-74.27L1027.87,2.3h74.27l-5.56,27.12h-40.81l-4,19.68h38l-6.16,27.12h-38l-4.88,23.61h40.81Z"/></g></g></svg>
